<!DOCTYPE svg PUBLIC "-//W3C//DTD SVG 1.1//EN" "http://www.w3.org/Graphics/SVG/1.1/DTD/svg11.dtd">
<!-- Uploaded to: SVG Repo, www.svgrepo.com, Transformed by: SVG Repo Mixer Tools -->
<svg fill="#000000" version="1.1" id="Layer_1" xmlns:x="&amp;ns_extend;" xmlns:i="&amp;ns_ai;" xmlns:graph="&amp;ns_graphs;" xmlns="http://www.w3.org/2000/svg" xmlns:xlink="http://www.w3.org/1999/xlink" width="800px" height="800px" viewBox="0 0 24 24" enable-background="new 0 0 24 24" xml:space="preserve" transform="rotate(180)">
<g id="SVGRepo_bgCarrier" stroke-width="0"/>
<g id="SVGRepo_tracerCarrier" stroke-linecap="round" stroke-linejoin="round"/>
<g id="SVGRepo_iconCarrier"> <metadata> <sfw> <slices> </slices> <slicesourcebounds width="505" height="984" bottomleftorigin="true" x="0" y="-552"> </slicesourcebounds> </sfw> </metadata> <g> <g> <g> <path d="M3,19c-0.2,0-0.3,0-0.5-0.1C2.2,18.7,2,18.4,2,18V6c0-0.4,0.2-0.7,0.5-0.9c0.3-0.2,0.7-0.2,1,0l9,6 c0.3,0.2,0.4,0.5,0.4,0.8s-0.2,0.6-0.4,0.8l-9,6C3.4,18.9,3.2,19,3,19z M4,7.9v8.3l6.2-4.1L4,7.9z"/> </g> </g> <g> <g> <path d="M12,19c-0.2,0-0.3,0-0.5-0.1C11.2,18.7,11,18.4,11,18V6c0-0.4,0.2-0.7,0.5-0.9c0.3-0.2,0.7-0.2,1,0l9,6 c0.3,0.2,0.4,0.5,0.4,0.8s-0.2,0.6-0.4,0.8l-9,6C12.4,18.9,12.2,19,12,19z M13,7.9v8.3l6.2-4.1L13,7.9z"/> </g> </g> </g> </g>
</svg>